<?xml version="1.0" encoding="UTF-8"?>
<svg version="1.1"
   xmlns="http://www.w3.org/2000/svg" width="250" height="250">
   <path d="M0 0 C8.1818565 9.54549925 6.90549022 22.73668464 7.0078125 34.53515625 C7.04020706 36.55491787 7.07457167 38.57464877 7.11080933 40.59434509 C7.20166233 45.87871126 7.27156466 51.16311956 7.33520508 56.44787598 C7.43948701 64.93725698 7.56906799 73.42619063 7.71163559 81.91500664 C7.7573273 84.87868526 7.78983331 87.84230593 7.82107544 90.8061676 C7.84787402 92.61044991 7.87510233 94.4147259 7.90283203 96.21899414 C7.90805878 97.0454393 7.91328552 97.87188446 7.91867065 98.72337341 C7.82448279 103.14400286 7.82448279 103.14400286 10.25 106.625 C11.24 106.625 12.23 106.625 13.25 106.625 C14.66669886 99.86003361 15.84068777 93.09271785 16.8359375 86.25390625 C17.13002527 84.27666547 17.42430233 82.29945284 17.71875 80.32226562 C18.17064463 77.2692986 18.62081698 74.21610474 19.06738281 71.16235352 C20.58723291 60.79552679 22.15701682 50.43770332 24.1640625 40.15234375 C24.29888031 39.40400772 24.43369812 38.65567169 24.57260132 37.88465881 C25.96586312 31.09904343 29.49380061 23.73657099 35.25 19.625 C39.80342989 18.52336374 42.08381858 18.22132182 46.5 19.75 C50.44812114 22.44190078 52.7362553 25.08376589 54.25 29.625 C54.81734349 40.03607435 53.78615446 50.18026219 52.3515625 60.48046875 C52.15361989 61.95798744 51.95665158 63.43563695 51.7605896 64.91340637 C51.24696711 68.76843268 50.7223213 72.62186815 50.19451904 76.47497559 C49.25475681 83.35004987 48.33412777 90.22773515 47.4140625 97.10546875 C47.31587219 97.83830645 47.21768188 98.57114414 47.11651611 99.32618904 C45.96527249 107.93810682 44.8513671 116.55002749 43.9765625 125.1953125 C43.900961 125.93456467 43.8253595 126.67381683 43.74746704 127.43547058 C41.55855332 146.80266507 41.55855332 146.80266507 47.25 164.625 C50.0617973 165.78331981 50.0617973 165.78331981 53.25 165.625 C55.94302302 164.18424975 55.94302302 164.18424975 58.375 161.875 C59.31988281 161.05257812 60.26476562 160.23015625 61.23828125 159.3828125 C63.31328025 157.49793656 65.36687564 155.5905188 67.41796875 153.6796875 C67.94310059 153.19209961 68.46823242 152.70451172 69.00927734 152.20214844 C70.49233797 150.81559631 71.95949244 149.4120891 73.42578125 148.0078125 C79.02328849 143.28515771 83.46109422 142.1134345 90.5625 142.25 C91.3143457 142.25942627 92.06619141 142.26885254 92.84082031 142.27856445 C100.01974871 142.47349208 105.40758743 143.5947053 111.3125 147.8125 C113.41672831 150.86702496 113.93128474 152.9360628 113.66015625 156.6484375 C112.29761735 163.21457733 106.47730648 167.91624066 101.25 171.625 C97.54955572 173.83350746 93.75873619 175.87496103 89.97070312 177.92822266 C77.11417575 184.91211377 68.00686826 193.10314865 58.8828125 204.484375 C55.20785107 208.95697999 51.19414639 213.12631252 47.21044922 217.32250977 C44.56823762 220.11159395 41.98838216 222.89979981 39.5703125 225.88671875 C29.32156448 237.98162172 9.37811896 242.90897457 -5.75 244.625 C-20.86999565 245.42100483 -35.21499248 245.03278297 -49.75 240.625 C-50.74128906 240.32464844 -51.73257813 240.02429688 -52.75390625 239.71484375 C-65.979276 235.05062938 -74.56894485 224.36180824 -80.66455078 212.0925293 C-88.44334416 195.589559 -91.30388371 178.59209887 -92.625 160.54296875 C-93.60906396 148.0277965 -95.28569257 135.66389133 -97.125 123.25 C-97.43820925 121.09359696 -97.75078466 118.93710177 -98.06274414 116.78051758 C-99.35583083 107.87802071 -100.67279576 98.98009835 -102.09765625 90.09765625 C-102.28602051 88.91671387 -102.47438477 87.73577148 -102.66845703 86.51904297 C-102.99703743 84.48913943 -103.33418207 82.46058787 -103.68310547 80.43408203 C-106.51749972 63.1401693 -106.51749972 63.1401693 -103 56.5 C-100.35287339 53.11756045 -98.57450426 51.96521284 -94.3828125 51.18359375 C-90.87702101 51.01431098 -87.9782797 50.88595035 -84.90625 52.734375 C-76.49897764 61.39901284 -75.32254368 77.59846534 -73.03027344 88.99365234 C-72.49497137 91.64995329 -71.94737305 94.30351777 -71.3984375 96.95703125 C-71.05135999 98.65870679 -70.70498 100.36052479 -70.359375 102.0625 C-70.19693298 102.84898926 -70.03449097 103.63547852 -69.86712646 104.44580078 C-69.11427973 108.22125868 -68.55268741 111.77069973 -68.75 115.625 C-65.83365871 115.8752157 -65.83365871 115.8752157 -62.75 115.625 C-60.22367258 111.83550887 -60.62201223 110.27297608 -60.93359375 105.76171875 C-60.98382187 105.0311174 -61.03404999 104.30051605 -61.08580017 103.54777527 C-62.10232313 89.84534326 -63.7432643 76.1835499 -65.24145508 62.52758789 C-65.65831232 58.71306847 -66.06597224 54.89764683 -66.47265625 51.08203125 C-66.60076187 49.93893997 -66.72886749 48.79584869 -66.8608551 47.61811829 C-69.46237738 23.02036931 -69.46237738 23.02036931 -63 14.25 C-59.8883537 12.00269989 -57.56343924 11.7564979 -53.75 11.625 C-48.68906119 12.63718776 -45.93370315 14.58083654 -42.75 18.625 C-40.12646032 24.66870834 -39.05539272 30.91746285 -38.26171875 37.4140625 C-38.1405217 38.35222809 -38.01932465 39.29039368 -37.89445496 40.25698853 C-36.29879621 52.81982367 -34.93639752 65.41142153 -33.5625 78 C-33.28736985 80.50133075 -33.01198064 83.00263301 -32.73632812 85.50390625 C-32.07124366 91.54394706 -31.40931297 97.58432661 -30.75 103.625 C-28.44 103.955 -26.13 104.285 -23.75 104.625 C-23.75999275 102.92610374 -23.75999275 102.92610374 -23.77018738 101.19288635 C-23.83111459 90.49708329 -23.87602834 79.80131565 -23.90543652 69.10537815 C-23.92106402 63.60704351 -23.94224905 58.10884945 -23.97631836 52.6105957 C-24.00901572 47.3002631 -24.02687493 41.99006536 -24.03463173 36.67963982 C-24.04015662 34.65793677 -24.05094529 32.63624074 -24.06719017 30.61459541 C-24.08910236 27.77358416 -24.09196117 24.93312375 -24.09057617 22.09204102 C-24.101362 21.26413055 -24.11214783 20.43622009 -24.1232605 19.58322144 C-24.09146458 13.51951786 -23.4315459 6.79141271 -19.36876202 1.99401188 C-13.42569407 -3.23398349 -6.99999621 -3.49999811 0 0 Z " fill="#FABF35" transform="translate(126.75,2.375)"/>
   <path d="M0 0 C0 2.64 0 5.28 0 8 C-1.14855469 8.02578125 -2.29710937 8.0515625 -3.48046875 8.078125 C-17.82139579 8.53988581 -30.49454741 10.670258 -42 20 C-45.93645977 24.2584233 -48.74116551 28.7325685 -51.5 33.8125 C-51.89018311 34.5152002 -52.28036621 35.21790039 -52.68237305 35.94189453 C-54.34106674 38.93479242 -55.96805189 41.93875942 -57.55078125 44.97265625 C-57.96714844 45.76542969 -58.38351563 46.55820313 -58.8125 47.375 C-59.14894531 48.04273438 -59.48539062 48.71046875 -59.83203125 49.3984375 C-61.28344741 51.3886737 -62.75094177 52.06642866 -65 53 C-64.3374021 42.72973252 -60.75298016 34.99715819 -55.5625 26.25 C-55.19125 25.62399902 -54.82 24.99799805 -54.4375 24.35302734 C-46.67734039 11.63461244 -35.84111297 4.25766953 -21.375 0.75 C-14.33968086 -0.53529869 -7.12055572 -0.15901985 0 0 Z " fill="#E48D16" transform="translate(169,141)"/>
</svg>
