<?xml version="1.0" encoding="UTF-8"?>
<svg version="1.1" xmlns="http://www.w3.org/2000/svg" width="250" height="250">
<path d="M0 0 C5.63305694 3.20537755 7.12144547 8.37310789 9.09375 14.19140625 C10.41375 14.19140625 11.73375 14.19140625 13.09375 14.19140625 C13.45726562 13.39476562 13.45726562 13.39476562 13.828125 12.58203125 C16.41387421 7.13206753 18.39501627 3.34800642 24.15625 0.87890625 C31.50276581 -0.40381873 38.88111574 0.1292385 45.4375 3.91796875 C49.25825123 6.85562182 50.73759815 10.07428134 51.51123047 14.6730957 C52.29058033 23.0521952 51.70325292 31.0308165 50.78125 39.37890625 C50.65041016 40.68021484 50.51957031 41.98152344 50.38476562 43.32226562 C49.67526375 50.07795735 48.74326369 56.6005546 47.09375 63.19140625 C48.4240625 63.56652344 48.4240625 63.56652344 49.78125 63.94921875 C57.32546786 66.77830045 62.7890881 72.91301791 66.59375 79.87890625 C69.56522805 86.48498881 70.57823125 93.00687509 71.09375 100.19140625 C71.16464844 101.17882812 71.23554688 102.16625 71.30859375 103.18359375 C72.03108098 124.51141685 63.47881925 143.73936928 49.59375 159.56640625 C48.11152294 161.12516827 46.61206465 162.66777351 45.09375 164.19140625 C44.40925781 164.89910156 43.72476563 165.60679687 43.01953125 166.3359375 C28.7948191 180.08736902 8.50172515 184.28786834 -10.69140625 184.39453125 C-11.51015732 184.40023132 -12.32890839 184.4059314 -13.17247009 184.4118042 C-14.8977634 184.42119545 -16.62307416 184.4277646 -18.34838867 184.43164062 C-20.93767114 184.44129042 -23.52613933 184.47234695 -26.11523438 184.50390625 C-44.50364244 184.62070033 -63.04936406 182.48922488 -76.89453125 169.296875 C-90.36122758 155.20260447 -97.45681568 135.24769228 -101.4375 116.5 C-101.64855881 115.5147937 -101.85961761 114.5295874 -102.07707214 113.51452637 C-104.16020126 103.47373782 -105.59569993 93.37367472 -106.84692383 83.19970703 C-107.22234611 80.16231152 -107.61900152 77.12818495 -108.01757812 74.09375 C-111.93801332 43.48933275 -111.93801332 43.48933275 -107.171875 35.76953125 C-103.59469135 31.30909237 -99.6160524 28.31097535 -93.90625 27.19140625 C-89.28874618 27.12590974 -85.89180026 27.59596964 -81.90625 30.00390625 C-79.92242865 32.17371085 -79.21529407 33.3069949 -78.90625 36.19140625 C-77.58625 35.53140625 -76.26625 34.87140625 -74.90625 34.19140625 C-74.95265625 33.50175781 -74.9990625 32.81210938 -75.046875 32.1015625 C-75.33474312 24.60671036 -74.53499102 18.46851022 -69.55078125 12.59375 C-65.51078832 8.87868948 -61.1298012 7.23649088 -55.671875 7.16015625 C-50.41931676 7.51267694 -47.02579379 8.74248587 -42.90625 12.19140625 C-42.225625 13.09890625 -41.545 14.00640625 -40.84375 14.94140625 C-40.204375 15.68390625 -39.565 16.42640625 -38.90625 17.19140625 C-36.32526502 17.37912533 -36.32526502 17.37912533 -33.90625 17.19140625 C-33.75929688 16.55074219 -33.61234375 15.91007812 -33.4609375 15.25 C-31.47940098 7.60855745 -28.63805157 2.88177482 -22.21875 -1.74609375 C-14.51220511 -4.21800437 -7.30607813 -3.31779181 0 0 Z " fill="#F9BF35" transform="translate(144.90625,61.80859375)"/>
<path d="M0 0 C5.63305694 3.20537755 7.12144547 8.37310789 9.09375 14.19140625 C10.41375 14.19140625 11.73375 14.19140625 13.09375 14.19140625 C13.45726562 13.39476562 13.45726562 13.39476562 13.828125 12.58203125 C16.41387421 7.13206753 18.39501627 3.34800642 24.15625 0.87890625 C31.50276581 -0.40381873 38.88111574 0.1292385 45.4375 3.91796875 C49.25732695 6.85491117 50.73710587 10.07323211 51.51123047 14.67089844 C52.29293417 23.07021012 51.70229502 31.07281624 50.78125 39.44140625 C50.65041016 40.75109375 50.51957031 42.06078125 50.38476562 43.41015625 C49.71168388 49.83532301 48.89790155 55.9832341 47.09375 62.19140625 C43.4075245 61.74905919 39.73559401 61.29440802 36.06933594 60.70605469 C27.49563911 59.35545493 19.14227782 58.82563341 10.46875 58.81640625 C9.24929687 58.79191406 8.02984375 58.76742187 6.7734375 58.7421875 C-3.59936624 58.70894133 -13.67911286 60.47979437 -21.90625 67.19140625 C-24.75070975 71.45809588 -24.40264964 75.1873776 -23.90625 80.19140625 C-22.51727509 84.03151335 -21.44519287 84.90773412 -17.82543945 86.81298828 C-13.58852358 88.54461222 -9.77841754 88.49293422 -5.26171875 88.30859375 C-3.59831763 88.27551748 -1.93490568 88.24298238 -0.27148438 88.2109375 C2.31559879 88.14286281 4.90202639 88.06654921 7.48852539 87.97900391 C26.51424374 87.38031152 26.51424374 87.38031152 34.09375 93.19140625 C38.84183919 98.17110954 39.45026162 101.58519882 39.37109375 108.296875 C38.80089844 114.2477866 36.59331038 117.91053176 32.09375 121.75390625 C29.09375 123.19140625 29.09375 123.19140625 26.71875 122.94140625 C25.914375 122.57015625 25.914375 122.57015625 25.09375 122.19140625 C25.51171493 118.74319559 26.31080408 116.83622685 28.15625 113.81640625 C30.32348079 110.15123653 30.80860105 107.48051255 30.09375 103.19140625 C27.38685151 99.73259151 25.40763102 97.87116383 21.09375 97.19140625 C18.42220045 97.14291752 15.77878343 97.14677294 13.109375 97.19921875 C11.51823565 97.2167445 9.92708939 97.23365186 8.3359375 97.25 C5.84322734 97.2808528 3.35086811 97.3162734 0.85839844 97.36279297 C-1.55798517 97.40548017 -3.97396462 97.42867285 -6.390625 97.44921875 C-7.49105133 97.47715012 -7.49105133 97.47715012 -8.6137085 97.50564575 C-16.18044476 97.54260344 -22.2069605 95.35638735 -27.90625 90.19140625 C-28.091875 91.05765625 -28.2775 91.92390625 -28.46875 92.81640625 C-30.68926134 98.02978071 -34.50775226 100.87223249 -39.40625 103.56640625 C-46.03602571 105.22385018 -51.79377905 103.90295351 -57.90625 101.19140625 C-60.88485225 99.11933512 -63.41102914 96.81795452 -65.90625 94.19140625 C-66.298125 95.07828125 -66.69 95.96515625 -67.09375 96.87890625 C-69.42818059 101.1452794 -71.96590305 104.09012825 -76.21875 106.50390625 C-83.88886269 108.4660281 -90.10232955 106.98293806 -96.90625 103.19140625 C-103.22779164 98.50307426 -105.62526702 93.29156378 -106.78125 85.74609375 C-107.2161822 82.52488759 -107.56456815 79.29860119 -107.90625 76.06640625 C-108.10779368 74.45146046 -108.31220407 72.83686975 -108.51953125 71.22265625 C-111.93822257 43.48967168 -111.93822257 43.48967168 -107.171875 35.76953125 C-103.59469135 31.30909237 -99.6160524 28.31097535 -93.90625 27.19140625 C-89.28874618 27.12590974 -85.89180026 27.59596964 -81.90625 30.00390625 C-79.92242865 32.17371085 -79.21529407 33.3069949 -78.90625 36.19140625 C-77.58625 35.53140625 -76.26625 34.87140625 -74.90625 34.19140625 C-74.95265625 33.50175781 -74.9990625 32.81210938 -75.046875 32.1015625 C-75.33474312 24.60671036 -74.53499102 18.46851022 -69.55078125 12.59375 C-65.51078832 8.87868948 -61.1298012 7.23649088 -55.671875 7.16015625 C-50.41931676 7.51267694 -47.02579379 8.74248587 -42.90625 12.19140625 C-42.225625 13.09890625 -41.545 14.00640625 -40.84375 14.94140625 C-40.204375 15.68390625 -39.565 16.42640625 -38.90625 17.19140625 C-36.32526502 17.37912533 -36.32526502 17.37912533 -33.90625 17.19140625 C-33.75929688 16.55074219 -33.61234375 15.91007812 -33.4609375 15.25 C-31.47940098 7.60855745 -28.63805157 2.88177482 -22.21875 -1.74609375 C-14.51220511 -4.21800437 -7.30607813 -3.31779181 0 0 Z " fill="#E48E16" transform="translate(144.90625,61.80859375)"/>
<path d="M0 0 C6.30474645 5.27839238 7.58253504 9.73814002 8.75 17.625 C8.91209961 18.65778076 9.07419922 19.69056152 9.24121094 20.75463867 C10.57799468 29.66105884 11.5552696 38.60162724 12.4375 47.5625 C12.56519775 48.85397949 12.69289551 50.14545898 12.82446289 51.47607422 C15.05087508 75.58641278 15.05087508 75.58641278 7.625 84.8125 C3.02791441 87.06213763 -1.29771619 86.96005789 -6.3125 86.25 C-11.80597178 83.76239014 -15.30154447 79.37818543 -18.3125 74.25 C-19.73877044 70.2592776 -20.59992733 66.212027 -21.4375 62.0625 C-21.80524536 60.3616626 -21.80524536 60.3616626 -22.18041992 58.62646484 C-24.26655066 48.85930048 -26.16665281 39.05023422 -27.92700195 29.21923828 C-28.19495333 27.85046325 -28.50425359 26.48940086 -28.84521484 25.13696289 C-30.48129979 18.53022279 -29.60807134 12.25168728 -26.57421875 6.2265625 C-23.85534069 1.96726745 -20.70020181 -0.17397283 -16 -2.125 C-10.04921458 -3.1336077 -5.37601907 -2.84016102 0 0 Z " fill="#F9BF35" transform="translate(99.3125,71.75)"/>
<path d="M0 0 C5.57887731 6.39930044 6.31526092 15.73545035 7.75 23.8125 C7.9665625 24.98039062 8.183125 26.14828125 8.40625 27.3515625 C13.91258118 57.6703737 13.91258118 57.6703737 9.5625 65.125 C6.03162878 68.4748009 2.86325149 70.27756673 -2.08203125 70.56640625 C-7.82271675 70.24367606 -11.82612181 68.50608675 -15.875 64.4375 C-19.51661562 58.15518066 -21.29339934 51.83755458 -23 44.8125 C-23.50079944 42.79902943 -24.00335277 40.78599413 -24.5078125 38.7734375 C-24.74064941 37.8354834 -24.97348633 36.8975293 -25.21337891 35.93115234 C-25.87831198 33.28691552 -25.87831198 33.28691552 -27.03125 30.1875 C-29.12048854 23.37812993 -29.25238756 14.36771285 -26.25 7.8125 C-23.43377121 3.25100266 -19.89051137 0.42286111 -15.0625 -1.9375 C-9.61607677 -3.00542612 -4.90952206 -2.66821851 0 0 Z " fill="#F9BF35" transform="translate(62.875,91.5625)"/>
<path d="M0 0 C4.36614899 2.47984254 5.75764543 5.07269031 7.19287109 9.79492188 C8.27903311 14.34968632 8.26398862 18.62929469 8.07421875 23.28515625 C8.03667984 24.53335144 8.03667984 24.53335144 7.99838257 25.8067627 C7.9169434 28.4354398 7.82006579 31.06327749 7.72265625 33.69140625 C7.66433866 35.48564403 7.60703721 37.27991515 7.55078125 39.07421875 C7.41147948 43.44708758 7.2583404 47.81927304 7.09765625 52.19140625 C6.23970459 52.24256592 5.38175293 52.29372559 4.49780273 52.34643555 C-6.08285752 53.0536013 -16.35682566 54.4449446 -24.90234375 61.19140625 C-26.38734375 62.18140625 -26.38734375 62.18140625 -27.90234375 63.19140625 C-28.45638572 58.16036637 -29.00760568 53.12902751 -29.55639648 48.09741211 C-29.74282651 46.39160142 -29.92998051 44.68586966 -30.11791992 42.98022461 C-33.67331235 10.69726136 -33.67331235 10.69726136 -29.90234375 5.19140625 C-21.27662449 -4.00816543 -11.50649365 -5.2335399 0 0 Z " fill="#F9BF35" transform="translate(144.90234375,61.80859375)"/>
<path d="M0 0 C3.81554721 2.93365187 5.29536345 6.150736 6.07592773 10.74194336 C6.81120462 18.56743882 6.37597842 26.02885326 5.50488281 33.83129883 C5.2781547 35.86368368 5.06750428 37.89727419 4.859375 39.93164062 C3.81375343 49.8009272 3.81375343 49.8009272 2.65625 53.2734375 C2.0578833 53.15750244 1.4595166 53.04156738 0.84301758 52.92211914 C-15.64101152 49.74931366 -15.64101152 49.74931366 -32.34375 48.2734375 C-32.44772907 38.16436135 -32.4023496 28.06468309 -32.03125 17.9609375 C-32.00877197 17.08477783 -31.98629395 16.20861816 -31.96313477 15.3059082 C-31.70144303 9.17899844 -30.42996876 4.95571877 -26.59375 0.0234375 C-19.14877787 -5.76709638 -7.85803494 -4.54091363 0 0 Z " fill="#F9BF35" transform="translate(190.34375,65.7265625)"/>
</svg>
