<?xml version="1.0" encoding="UTF-8"?>
<svg version="1.1" xmlns="http://www.w3.org/2000/svg" width="250" height="250">
<path d="M0 0 C5.2677212 6.06586078 5.48844224 12.64897226 5.0625 20.375 C4.5762127 24.75845518 3.87046618 29.0913026 3.125 33.4375 C2.79773926 35.36843506 2.79773926 35.36843506 2.46386719 37.33837891 C-1.17690597 58.33987162 -6.09737778 79.11775594 -10.89990234 99.87759399 C-11.75361583 103.57172718 -12.60085243 107.26733558 -13.44812012 110.96295166 C-14.05121524 113.57610425 -14.66632859 116.18622685 -15.28222656 118.79638672 C-15.6495952 120.39018278 -16.01648347 121.98408967 -16.3828125 123.578125 C-16.5562619 124.29704926 -16.7297113 125.01597351 -16.90841675 125.75668335 C-17.77761559 129.59764235 -18.18733009 132.59706472 -16.9375 136.375 C-15.35566451 137.97186521 -15.35566451 137.97186521 -13.3125 139.1875 C-5.17612697 144.89902936 -0.43543526 151.2861796 1.6171875 161 C3.74364714 177.11632566 3.53931301 197.53509981 -5.9375 211.375 C-8.74836471 214.91499879 -11.74806421 218.1744318 -14.9375 221.375 C-15.48019531 221.94089844 -16.02289063 222.50679687 -16.58203125 223.08984375 C-31.85283721 237.66476488 -56.19863441 240.81606325 -76.37988281 240.35375977 C-91.37848126 239.71401625 -105.49653071 235.5764403 -116.75 225.125 C-117.84864574 223.9066471 -118.91048216 222.65431255 -119.9375 221.375 C-120.50855469 220.66601562 -121.07960938 219.95703125 -121.66796875 219.2265625 C-132.0553249 204.68884992 -135.28690662 184.96941329 -139.74169922 167.92333984 C-141.506203 161.22697664 -143.37048962 154.72284631 -146.17138672 148.36669922 C-147.93053188 143.79337029 -147.20997198 140.22109719 -145.75 135.6875 C-143.52827529 131.62710656 -141.5947614 129.17108038 -137.046875 127.80859375 C-132.12074738 126.91549809 -129.25941073 127.6858111 -124.9375 130.375 C-123.27190702 131.37678731 -121.6054021 132.37706194 -119.9375 133.375 C-120.22625 132.72015625 -120.515 132.0653125 -120.8125 131.390625 C-123.90692801 123.78348947 -125.69684258 116.25682578 -123.27734375 108.16796875 C-121.65675232 104.83558377 -119.84605162 103.32048269 -116.6875 101.4375 C-111.20713036 99.8847286 -107.06662716 99.43327068 -101.6875 101.8125 C-100.32625 102.5859375 -100.32625 102.5859375 -98.9375 103.375 C-97.61238739 103.7396443 -96.27974535 104.0795913 -94.9375 104.375 C-95.20788086 103.62444336 -95.47826172 102.87388672 -95.75683594 102.10058594 C-101.19352787 86.97537174 -106.53448316 71.81930783 -111.6529541 56.58312988 C-112.16965483 55.0465341 -112.68840263 53.51062492 -113.20935059 51.97546387 C-123.88758685 20.46594255 -123.88758685 20.46594255 -119.3125 9.9375 C-117.15822738 6.21443652 -115.10398289 4.71141904 -110.9375 3.375 C-105.17798075 1.92176323 -101.15256726 2.15313844 -95.859375 4.87890625 C-89.42508474 9.88771351 -87.3141546 15.93323549 -84.828125 23.45703125 C-84.45701599 24.54344406 -84.08590698 25.62985687 -83.70355225 26.74919128 C-82.51911139 30.22455581 -81.35271096 33.7056466 -80.1875 37.1875 C-78.65514479 41.71623787 -77.11669596 46.24290167 -75.578125 50.76953125 C-75.19740845 51.89022003 -74.81669189 53.01090881 -74.42443848 54.16555786 C-71.70813977 62.14728281 -68.97378111 70.12210128 -66.171875 78.07421875 C-65.82030334 79.09441605 -65.46873169 80.11461334 -65.10650635 81.16572571 C-62.95594911 87.21011026 -60.57619543 93.73630457 -55.9375 98.375 C-53.59805264 98.08769945 -51.2635857 97.75563221 -48.9375 97.375 C-45.32932741 88.47665845 -43.19444352 79.41307813 -41.1875 70.0625 C-40.84469286 68.49685364 -40.50125516 66.93134522 -40.15722656 65.3659668 C-38.30160354 56.88447213 -36.52069543 48.38883141 -34.78125 39.8828125 C-34.42683073 38.16054814 -34.07233933 36.43829863 -33.71777344 34.71606445 C-33.04173708 31.43053252 -32.38034301 28.14251262 -31.72753906 24.85229492 C-27.55636303 4.22203442 -27.55636303 4.22203442 -19.9375 -1.625 C-13.09728604 -4.70980237 -6.42722464 -3.55548597 0 0 Z " fill="#F9BF35" transform="translate(186.9375,6.625)"/>
<path d="M0 0 C1.36125 0.7734375 1.36125 0.7734375 2.75 1.5625 C4.90681654 2.22152728 6.50365295 2.5625 8.75 2.5625 C10.08819498 5.1851232 11.4207151 7.81036599 12.75 10.4375 C13.32234375 11.55705078 13.32234375 11.55705078 13.90625 12.69921875 C14.44765625 13.77236328 14.44765625 13.77236328 15 14.8671875 C15.33515625 15.52702637 15.6703125 16.18686523 16.015625 16.86669922 C16.75 18.5625 16.75 18.5625 16.75 20.5625 C17.31203125 20.27375 17.8740625 19.985 18.453125 19.6875 C38.1533134 10.98557629 61.1410944 18.64060579 80.328125 25.3515625 C81.12734375 25.75117188 81.9265625 26.15078125 82.75 26.5625 C83.79449911 29.69599732 83.68423645 30.55218256 82.75 33.5625 C81.35396057 33.14652437 79.95818801 32.72965317 78.5625 32.3125 C77.64726562 32.03921875 76.73203125 31.7659375 75.7890625 31.484375 C73.7381128 30.86223602 71.69125286 30.22647446 69.6484375 29.578125 C46.79000379 22.13971878 46.79000379 22.13971878 23.78125 26.3046875 C20.37574455 28.41348126 18.78181486 30.04068758 16.75 33.5625 C16.13073986 37.44762014 16.50097845 40.81543536 17.75 44.5625 C20.2885946 45.69149451 20.2885946 45.69149451 23.75 46.5625 C24.51441406 46.7996875 25.27882813 47.036875 26.06640625 47.28125 C31.41740946 48.87618389 36.57223972 49.83007731 42.125 50.4375 C54.07986308 51.92272739 63.88724628 55.56501976 71.6875 64.875 C73.24075459 68.80382043 73.31738116 72.39413977 72.75 76.5625 C71.12599816 80.19717079 70.08886956 81.33658696 66.75 83.5625 C65.43 83.5625 64.11 83.5625 62.75 83.5625 C62.86859375 82.53769531 62.9871875 81.51289063 63.109375 80.45703125 C63.24073998 79.09646535 63.37088402 77.73578117 63.5 76.375 C63.62181641 75.36469727 63.62181641 75.36469727 63.74609375 74.33398438 C64.06382682 70.71535778 63.91720963 68.83435531 61.99609375 65.7109375 C53.61234874 57.69170315 41.73940325 57.26909446 30.75 56.5625 C30.51216797 57.77486328 30.51216797 57.77486328 30.26953125 59.01171875 C27.89495713 69.88753062 27.89495713 69.88753062 22.75 73.5625 C18.65927848 75.88426086 14.36094133 76.28743776 9.75 75.5625 C6.9354309 74.45968758 4.34485446 73.10837074 1.75 71.5625 C1.13125 73.41875 1.13125 73.41875 0.5 75.3125 C-1.11943397 79.61578463 -3.03430482 82.22527428 -7.0234375 84.6328125 C-11.58840434 86.53888637 -16.42447303 86.25878055 -21.25 85.5625 C-26.60458062 83.19762614 -31.14118709 79.56363382 -34.25 74.5625 C-34.25 73.5725 -34.25 72.5825 -34.25 71.5625 C-34.91 71.5625 -35.57 71.5625 -36.25 71.5625 C-36.41604736 71.02882813 -36.58209473 70.49515625 -36.75317383 69.9453125 C-37.52058593 67.48363123 -38.2915224 65.02306681 -39.0625 62.5625 C-39.32353516 61.72332031 -39.58457031 60.88414062 -39.85351562 60.01953125 C-41.10919041 56.01997452 -42.4111552 52.06978474 -43.92578125 48.16015625 C-45.88421511 42.8394554 -45.79263853 39.24753543 -44.0625 33.875 C-41.84077529 29.81460656 -39.9072614 27.35858038 -35.359375 25.99609375 C-30.43324738 25.10299809 -27.57191073 25.8733111 -23.25 28.5625 C-21.58440702 29.56428731 -19.9179021 30.56456194 -18.25 31.5625 C-18.53875 30.90765625 -18.8275 30.2528125 -19.125 29.578125 C-22.21942801 21.97098947 -24.00934258 14.44432578 -21.58984375 6.35546875 C-19.96925232 3.02308377 -18.15855162 1.50798269 -15 -0.375 C-9.51963036 -1.9277714 -5.37912716 -2.37922932 0 0 Z " fill="#E48D16" transform="translate(85.25,108.4375)"/>
<path d="M0 0 C7.14580143 5.08145879 10.60470408 14.78910184 12.8125 23 C12.49215632 25.89557401 11.78019599 28.08551061 10.75 30.8125 C9.07308431 36.51401334 8.89111737 40.94057711 11.6875 46.1875 C14.92551099 50.94596833 19.60624827 52.89728085 24.8125 55 C25.14492149 59.15526857 25.03737823 61.55857236 23.125 65.3125 C19.75296807 69.23134792 17.43062929 69.8234768 12.375 70.375 C6.19676266 69.72465923 2.29905762 66.13294047 -1.56640625 61.4140625 C-4.52537345 57.00769688 -6.72861332 52.19783615 -9.02734375 47.42578125 C-11.60111266 42.09108192 -14.40439708 36.88347617 -17.21801758 31.67236328 C-21.56170189 23.56662481 -24.25328678 16.06325899 -21.53515625 6.76953125 C-19.8913891 3.46083256 -18.08873156 1.94111881 -14.9375 0.0625 C-9.53675853 -1.46771008 -5.47062909 -1.71627579 0 0 Z " fill="#F9BF35" transform="translate(85.1875,108)"/>
<path d="M0 0 C4.21364688 3.68233809 6.31048077 8.56033346 8.68359375 13.53515625 C9.16030518 14.51492432 9.6370166 15.49469238 10.12817383 16.50415039 C19.84832754 36.78686001 19.84832754 36.78686001 19.12109375 46.09765625 C16.57972216 49.2571993 14.97486716 50.81306511 11.12109375 52.09765625 C4.98492337 52.60062104 1.98384723 52.22042551 -2.87890625 48.09765625 C-8.18809509 42.98304501 -11.77101783 36.74324745 -14.87890625 30.09765625 C-14.87890625 29.43765625 -14.87890625 28.77765625 -14.87890625 28.09765625 C-15.53890625 28.09765625 -16.19890625 28.09765625 -16.87890625 28.09765625 C-17.52983215 26.85030058 -18.17442294 25.59963793 -18.81640625 24.34765625 C-19.17605469 23.6515625 -19.53570312 22.95546875 -19.90625 22.23828125 C-22.46463955 16.6077693 -22.59237981 11.31317942 -20.69140625 5.41015625 C-18.482206 1.37265234 -16.23698089 -0.8805114 -12.00390625 -2.71484375 C-7.32803115 -3.12742096 -3.94479562 -2.60666956 0 0 Z " fill="#F9BF35" transform="translate(61.87890625,136.90234375)"/>
</svg>
